<svg viewBox="0 0 10 12" fill="none" xmlns="http://www.w3.org/2000/svg"><path d="M1.896 12V.576h3.008c1.397 0 2.432.283 3.104.848.682.565 1.024 1.387 1.024 2.464 0 .725-.166 1.35-.496 1.872-.33.512-.822.907-1.472 1.184-.64.277-1.435.416-2.384.416H3.336V12h-1.44ZM.504 9.824v-1.04h5.472v1.04H.504Zm0-2.464V6.144h3.664V7.36H.504Zm3.968-1.216c.65 0 1.2-.07 1.648-.208.458-.139.81-.368 1.056-.688.245-.32.368-.757.368-1.312 0-.725-.224-1.264-.672-1.616-.448-.352-1.147-.528-2.096-.528h-1.44v4.352h1.136Z" fill="#444"/></svg>