<svg width="10" height="12" viewBox="0 0 10 12" fill="none" xmlns="http://www.w3.org/2000/svg">
<path d="M1.89575 12V0.575999H4.90375C6.30108 0.575999 7.33575 0.858666 8.00775 1.424C8.69042 1.98933 9.03175 2.81067 9.03175 3.888C9.03175 4.61333 8.86642 5.23733 8.53575 5.76C8.20508 6.272 7.71442 6.66667 7.06375 6.944C6.42375 7.22133 5.62908 7.36 4.67975 7.36H3.33575V12H1.89575ZM0.50375 9.824V8.784H5.97575V9.824H0.50375ZM0.50375 7.36V6.144H4.16775V7.36H0.50375ZM4.47175 6.144C5.12242 6.144 5.67175 6.07467 6.11975 5.936C6.57842 5.79733 6.93042 5.568 7.17575 5.248C7.42108 4.928 7.54375 4.49067 7.54375 3.936C7.54375 3.21067 7.31975 2.672 6.87175 2.32C6.42375 1.968 5.72508 1.792 4.77575 1.792H3.33575V6.144H4.47175Z" fill="#444444"/>
</svg>
